<svg width="3265" height="800" viewBox="0 0 3265 800" fill="none" xmlns="http://www.w3.org/2000/svg">
<path fill-rule="evenodd" clip-rule="evenodd" d="M360.034 223.75C355.544 207.253 357.835 157.028 357.835 134.664C357.835 124.125 356.46 98.0038 358.018 89.3885C361.043 72.3413 377.998 72.6162 383.772 79.0318C392.113 88.2887 386.339 185.256 387.988 212.568C388.813 225.033 388.813 224.575 376.623 224.208C371.216 224.025 364.342 224.85 359.943 223.842L360.034 223.75ZM434.089 226.866C425.107 229.891 421.716 225.491 412.734 224.758C400.636 223.75 404.211 222.375 405.585 213.852C406.594 207.803 405.86 195.613 405.86 188.922C405.86 177.283 408.335 176.733 409.068 168.209C409.71 160.602 408.885 150.978 409.068 143.188C409.252 135.764 412.093 130.907 412.368 123.758C413.009 106.711 409.16 92.413 417.683 80.2233C421.166 75.1825 427.674 72.8912 434.089 75.9157C450.678 83.8894 440.78 102.77 440.871 112.668C440.871 120.183 441.33 129.074 440.688 136.406C439.955 145.663 437.572 147.037 437.572 158.494C437.572 165.643 438.122 175.266 437.572 182.14C437.114 188.189 435.922 187.089 434.822 192.038C433.448 198.454 435.097 216.784 433.997 227.049L434.089 226.866ZM340.513 181.957C341.338 190.847 339.23 207.528 341.063 216.418C343.262 227.049 342.987 223.658 318.241 225.125C307.151 225.766 313.842 218.251 311.917 198.454C311.092 190.114 308.801 187.822 308.71 176.366C308.71 169.217 309.351 159.594 308.618 152.72C307.885 144.838 305.502 142.272 305.41 130.54C305.41 123.758 306.052 113.493 305.227 107.169C304.585 102.036 297.528 90.7633 306.418 79.7651C308.618 77.0155 309.259 76.9239 313.659 75.7324C321.816 73.4411 327.773 77.0155 330.431 82.2397C333.455 88.197 334.005 93.8794 333.914 102.77C333.73 135.398 337.213 135.948 337.213 147.129C337.122 185.348 339.138 169.767 340.329 181.865L340.513 181.957ZM295.145 216.601C295.787 223.475 296.978 220.451 297.62 226.408L283.78 231.174C279.381 231.54 271.224 231.357 266.825 230.99C266.733 224.392 267.466 217.243 265.358 211.194C262.7 203.128 264.442 203.403 263.25 194.421C261.967 184.523 260.226 193.047 260.226 177.832L254.91 143.738C252.619 136.498 254.727 132.648 253.26 126.049C251.427 117.709 250.694 126.416 250.419 109.735C250.236 97.9121 247.211 103.686 247.211 88.9302C247.211 81.8731 254.085 74.9992 260.317 73.8993C263.983 73.2578 264.075 73.2578 270.216 77.2905C280.206 83.8894 277.273 100.57 279.656 109.369C284.238 125.774 280.022 123.025 283.139 132.465L290.379 179.207C293.22 187.639 289.371 185.44 294.137 203.312C295.42 208.261 294.503 211.744 294.87 216.601H295.145ZM470.842 80.04C475.149 78.4819 479.182 74.9075 483.489 73.3494C509.519 86.8222 495.679 89.2968 495.771 109.735C495.771 121.742 493.479 119.084 492.655 126.507C491.463 136.956 494.854 132.923 490.455 145.571C488.164 152.078 490.272 157.028 488.714 163.443C486.514 172.425 486.514 170.134 486.239 182.048C485.964 193.047 483.031 186.906 482.848 197.171C482.573 215.96 480.557 204.595 479.64 215.318C478.999 222.467 480.098 226.225 478.632 233.832C469.283 235.298 471.208 233.098 464.701 231.632C458.01 230.166 455.536 232.824 449.762 229.524C447.837 227.324 454.436 192.863 454.527 188.831C454.711 175.908 457.919 185.073 457.827 168.026C457.735 155.561 461.126 159.227 461.126 150.062C461.126 135.123 462.868 140.805 464.059 131.915C465.251 123.208 463.051 123.208 465.984 114.318C468.55 106.711 466.167 103.136 467.725 96.354C468.825 91.5881 469.283 93.9711 470.2 89.7551C470.75 87.2805 470.75 82.6979 470.842 79.9484V80.04ZM229.614 241.805C225.123 242.63 226.406 245.013 226.223 242.08L214.766 195.796C213.758 186.906 213.575 191.489 212.2 186.814C211.1 182.873 211.925 180.765 211.009 176.733C209.909 171.417 209.451 174.9 208.351 168.026L201.935 140.164C201.11 134.756 202.21 136.223 200.377 130.54L195.611 112.026C194.695 107.536 195.703 107.077 194.236 102.22C192.312 96.0791 192.037 101.578 192.037 89.0219C192.037 83.0645 193.137 80.9565 196.528 78.2986C219.624 60.3349 223.382 99.2869 225.856 106.527C227.689 112.026 226.406 112.301 227.414 117.617C228.423 122.75 229.339 120.55 230.164 126.691L237.038 159.502C238.321 166.284 239.054 161.518 239.971 168.392L248.678 210.094C250.602 215.135 249.319 215.593 250.236 220.725C251.702 228.608 254.177 222.65 252.619 237.131L238.138 240.339C235.755 240.981 232.272 241.255 229.522 241.805H229.614ZM493.205 234.748C493.205 223.475 494.121 228.424 495.954 222.467C497.237 218.251 495.862 215.868 497.695 210.277L503.195 186.173C504.294 178.199 505.119 184.156 506.311 173.708C507.136 166.101 508.052 168.392 509.152 163.26L513.276 137.872C514.468 132.373 514.284 136.681 515.476 131.548L519.325 115.234C519.967 105.244 520.7 108.36 522.075 102.311L524.733 90.8549C527.666 82.3313 527.024 75.6407 539.122 75.7324C547.279 75.824 554.336 81.5981 554.336 88.8386L548.929 113.768C547.279 118.717 548.562 120.642 546.912 125.591C545.354 130.448 546.363 123.941 544.988 130.723C544.53 133.198 544.804 134.848 544.53 137.322C543.796 143.83 542.788 141.355 541.505 148.596C540.222 156.203 539.672 153.911 538.572 158.769C537.381 164.268 538.847 164.726 536.739 171.05L525.833 217.151C524.366 222.192 525.833 223.658 523.908 229.249C522.258 234.015 523.266 227.508 522.167 234.748C519.967 249.779 520.15 244.28 507.136 241.347C501.362 240.064 497.512 242.722 493.388 234.657L493.205 234.748ZM166.649 195.246C164.908 189.747 164.175 188.556 163.166 183.24C161.792 175.633 161.333 177.558 159.592 169.767L139.429 101.212C130.263 72.5246 152.443 71.7914 158.859 76.2823C166.741 81.873 170.04 101.67 173.157 111.843L207.618 230.441C208.901 235.848 208.442 232.915 209.726 236.306C215.958 251.795 205.601 249.962 191.579 255.095C188.371 256.286 191.487 255.92 185.896 257.111C181.955 250.512 177.098 229.432 173.798 219.717L166.558 195.246H166.649ZM550.67 188.097C550.762 187.731 550.945 187.364 551.037 187.089L561.943 149.42C562.035 149.054 562.218 148.687 562.31 148.412L581.648 84.4393C583.573 80.315 589.806 71.7914 598.146 75.4574C602.545 77.3821 604.103 78.8485 606.761 82.423C609.236 85.8141 610.244 87.8304 608.961 93.9711L588.522 163.26C588.431 163.626 588.247 163.901 588.156 164.268L584.948 176.641C583.665 180.124 581.832 184.89 580.915 188.006C579.357 193.413 579.082 195.521 577.708 199.646L560.477 257.478C552.32 257.02 545.904 253.628 538.297 251.062C533.348 249.321 536.648 252.529 532.248 248.588L550.67 188.006V188.097ZM154.551 1.21949C142.087 1.21949 120.182 -0.796853 109.459 2.22766L95.0692 5.98538C90.5783 7.45181 85.3541 8.09337 81.2298 10.0181L47.8685 30.7314C41.6362 36.3221 28.8966 54.2859 24.2224 62.6262C15.1488 78.8485 8.82486 97.3622 4.33393 115.143C2.95915 120.733 4.42558 124.858 2.50089 131.182C-1.34848 144.105 0.3929 161.243 0.3929 175.083L4.88384 213.577L30.1797 291.297L60.5165 348.213C69.59 348.763 82.4212 334.557 90.7616 329.241C93.5111 327.5 95.7108 326.125 98.3687 324.384C101.76 322.092 102.676 321.909 105.884 319.343L136.771 300.371C142.911 297.346 147.127 295.605 153.818 292.397C156.842 291.022 159.684 289.098 161.975 287.906L276.723 251.429L308.71 246.021C315.217 243.822 324.84 244.922 332.172 244.922C343.72 245.013 347.753 241.989 355.727 241.989C366.908 241.989 380.839 240.431 391.471 243.638C402.744 247.03 418.783 242.997 429.415 246.938C436.38 249.504 441.696 246.938 448.387 248.771C453.153 250.146 449.395 250.512 455.811 251.246C458.835 251.612 462.41 251.062 465.342 251.429C473.591 252.62 465.801 252.162 472.766 253.995L515.109 264.443C519.509 265.452 559.285 279.199 566.709 283.507C582.107 292.397 598.604 297.621 613.085 308.986C616.843 311.919 622.434 314.119 625.091 318.426C620.692 318.243 623.442 318.426 620.326 317.326C619.867 317.143 618.768 316.593 618.309 316.41L581.007 302.296C575.325 300.463 578.624 300.646 571.2 299.363C564.601 298.263 558.644 295.513 552.228 293.68C548.104 292.489 546.454 293.314 542.422 292.306C536.739 290.839 540.497 290.198 532.065 289.648C524.183 289.098 527.941 289.923 522.258 287.631C515.384 284.973 513.368 287.906 500.812 283.965C493.571 281.674 484.681 284.515 477.257 282.499C473.774 281.582 471.575 279.933 466.809 279.933H382.123C376.165 279.933 374.241 282.407 369.475 283.049C365.075 283.69 358.843 282.865 354.26 283.049C344.087 283.415 349.953 285.065 341.887 286.165C335.747 287.081 332.539 285.248 326.582 287.448C319.249 290.106 322.641 288.548 314.209 289.831C308.251 290.747 309.809 291.664 301.744 292.947C283.139 295.88 247.028 309.261 230.164 317.418L195.886 335.748C193.961 336.757 195.336 336.115 193.228 337.123C180.672 343.631 174.623 352.979 165.366 359.395C152.535 368.193 151.618 370.485 141.903 383.132C139.245 386.524 137.137 387.348 134.479 391.106L127.514 400.638C122.84 408.245 117.157 416.402 114.224 425.201C113.125 428.317 113.491 428.317 112.3 431.341C110.558 435.649 108.817 438.582 107.442 443.164L100.843 466.902C100.202 471.851 101.302 476.892 100.385 481.75C99.2852 487.707 97.4521 486.607 97.4521 495.864V527.759C97.4521 538.574 100.385 542.881 100.752 551.313C101.21 563.87 99.5601 565.061 103.135 576.334C104.601 580.825 103.868 582.933 103.959 587.608C104.143 596.498 105.517 594.206 106.801 599.156C107.992 603.922 106.526 606.671 108.175 611.804L138.604 714.82C138.787 715.095 138.97 715.462 139.062 715.737L161.883 762.113C169.399 776.044 184.888 807.755 206.334 797.49C213.575 794.007 219.716 779.16 222.099 771.644C222.74 769.536 224.94 764.954 226.131 761.929L237.588 719.403C238.871 707.58 242.537 697.315 244.37 686.225C245.653 678.343 246.57 683.2 247.394 675.043C248.128 667.436 247.119 670.644 249.319 664.228C251.427 658.179 249.869 657.263 251.152 651.947C252.069 647.914 252.985 648.464 254.085 641.59C256.285 628.209 269.849 578.167 274.707 565.703L296.062 516.669C305.593 498.064 322.641 477.35 341.887 469.377C365.9 459.387 380.198 458.562 404.302 468.552L421.533 478.909C426.39 483.583 430.606 487.707 435.464 492.748C441.971 499.347 448.387 513.003 453.244 521.893L492.38 641.774C493.846 649.472 493.48 646.631 495.129 652.314L499.254 676.326C500.17 684.025 500.995 679.534 502.186 685.308C503.378 691.541 501.728 690.533 504.203 697.498C506.311 703.455 504.936 703.455 506.219 709.413L517.492 753.864C518.592 756.888 520.333 761.563 521.067 763.854C523.908 772.011 531.79 794.374 541.23 798.04C548.837 800.973 554.52 800.881 560.019 795.932C569.917 787.042 576.608 776.868 583.848 765.687C593.105 751.298 599.796 734.525 606.303 718.853C606.486 718.486 606.944 717.295 607.128 716.928C607.219 716.653 607.403 716.287 607.586 715.92L637.923 612.812C640.214 606.396 638.656 606.671 639.572 600.347C640.489 593.657 641.955 596.956 642.597 589.074C642.964 584.216 641.955 580.917 643.33 576.243C646.538 565.428 645.805 564.236 645.805 551.497C645.805 540.224 649.104 538.024 649.104 526.567V497.422C649.104 486.607 646.08 482.85 645.805 473.868C645.438 460.853 646.355 461.403 643.33 450.496C642.139 446.006 643.055 443.531 642.505 439.04C641.497 431.708 640.397 436.015 639.481 427.858C638.473 419.152 635.082 416.31 642.047 408.52C646.63 403.387 649.654 401.188 654.512 394.589C658.453 389.181 661.569 384.324 665.51 379.283C668.534 375.434 667.71 375.525 670.276 371.493C676.233 362.236 681.824 358.478 687.14 346.747C690.439 339.415 687.415 344.914 691.997 339.048L699.879 324.567C700.429 323.375 700.704 322.642 701.162 321.726C708.036 308.161 704.92 320.901 714.544 295.147C716.835 288.914 721.417 282.59 723.434 276.266C725.817 269.026 727.741 264.352 730.674 256.836L742.497 214.86C743.689 210.277 742.497 206.519 743.506 202.029C744.697 196.804 746.255 199.371 746.255 190.572V133.656C746.255 125.866 744.972 127.516 743.781 123.3C742.497 118.809 743.506 116.242 742.497 112.21C737.365 91.0382 728.383 68.2169 715.368 50.5281C705.745 37.4219 694.38 24.774 679.441 16.9836C677.791 16.1587 677.241 15.7005 675.133 14.509C672.109 12.7676 668.993 11.3928 665.602 10.0181C662.119 8.55163 667.16 10.2014 661.386 8.55163C644.155 3.69408 642.872 2.41096 623.808 1.86105C615.835 1.58609 608.686 -0.246943 600.254 0.0280126C591.364 0.302968 584.398 1.9527 575.325 1.9527C550.304 2.04435 559.102 4.33565 540.589 5.16051C533.348 5.52712 535.823 6.81024 530.324 8.00172C526.108 8.91823 523.266 7.91007 518.775 9.00989L498.795 14.4173C492.38 15.7921 493.571 14.4173 487.522 16.7086C479.823 19.6415 465.159 21.9328 457.185 24.0408L413.284 36.5054C410.81 37.3303 410.351 37.147 407.602 37.7885C396.237 40.4464 378.64 50.0699 367.55 45.7622C361.593 43.471 363.976 44.8457 357.743 43.471C351.144 41.9129 358.11 43.5626 353.527 42.0045L338.13 37.6052C321.357 33.7559 304.494 27.7985 286.988 24.0408L267.1 18.5417C255.826 16.4337 247.303 12.7676 235.388 11.6678C227.781 10.9346 230.347 10.1097 225.398 9.00989C221.09 8.09337 218.066 9.10154 213.942 8.00172C210.092 6.99355 210.825 5.52712 203.493 5.34382C198.819 5.16051 195.978 5.80207 191.304 4.6106C175.173 0.39462 173.157 1.7694 154.918 1.7694L154.551 1.21949Z" fill="#111111"/>
<path d="M840.5 207.193V150.091H1086.38V207.193H998.17V441H928.852V207.193H840.5Z" fill="#111111"/>
<path d="M1191.07 445.119C1168.25 445.119 1148.55 440.621 1131.98 431.625C1115.5 422.534 1102.81 409.608 1093.91 392.847C1085.1 375.991 1080.7 355.962 1080.7 332.761C1080.7 310.223 1085.15 290.526 1094.05 273.67C1102.95 256.72 1115.5 243.557 1131.69 234.182C1147.89 224.712 1166.97 219.977 1188.94 219.977C1204.47 219.977 1218.67 222.392 1231.55 227.222C1244.43 232.051 1255.56 239.201 1264.93 248.67C1274.31 258.14 1281.6 269.835 1286.81 283.756C1292.02 297.581 1294.62 313.443 1294.62 331.341V348.67H1104.99V308.33H1229.99C1229.89 300.943 1228.14 294.362 1224.73 288.585C1221.32 282.809 1216.64 278.311 1210.67 275.091C1204.8 271.777 1198.03 270.119 1190.36 270.119C1182.59 270.119 1175.63 271.871 1169.48 275.375C1163.32 278.784 1158.45 283.472 1154.85 289.438C1151.25 295.309 1149.35 301.985 1149.16 309.466V350.517C1149.16 359.419 1150.92 367.231 1154.42 373.955C1157.92 380.583 1162.9 385.744 1169.34 389.438C1175.77 393.131 1183.45 394.977 1192.35 394.977C1198.5 394.977 1204.09 394.125 1209.11 392.42C1214.13 390.716 1218.44 388.206 1222.03 384.892C1225.63 381.578 1228.33 377.506 1230.13 372.676L1293.91 374.523C1291.26 388.822 1285.43 401.275 1276.44 411.881C1267.54 422.392 1255.84 430.583 1241.35 436.455C1226.86 442.231 1210.1 445.119 1191.07 445.119Z" fill="#111111"/>
<path d="M1432.08 445.119C1409.26 445.119 1389.56 440.621 1372.99 431.625C1356.52 422.534 1343.83 409.608 1334.92 392.847C1326.12 375.991 1321.71 355.962 1321.71 332.761C1321.71 310.223 1326.17 290.526 1335.07 273.67C1343.97 256.72 1356.52 243.557 1372.71 234.182C1388.9 224.712 1407.98 219.977 1429.95 219.977C1445.48 219.977 1459.69 222.392 1472.57 227.222C1485.45 232.051 1496.57 239.201 1505.95 248.67C1515.32 258.14 1522.61 269.835 1527.82 283.756C1533.03 297.581 1535.64 313.443 1535.64 331.341V348.67H1346V308.33H1471C1470.91 300.943 1469.16 294.362 1465.75 288.585C1462.34 282.809 1457.65 278.311 1451.69 275.091C1445.81 271.777 1439.04 270.119 1431.37 270.119C1423.61 270.119 1416.65 271.871 1410.49 275.375C1404.34 278.784 1399.46 283.472 1395.86 289.438C1392.26 295.309 1390.37 301.985 1390.18 309.466V350.517C1390.18 359.419 1391.93 367.231 1395.44 373.955C1398.94 380.583 1403.91 385.744 1410.35 389.438C1416.79 393.131 1424.46 394.977 1433.36 394.977C1439.52 394.977 1445.1 394.125 1450.12 392.42C1455.14 390.716 1459.45 388.206 1463.05 384.892C1466.65 381.578 1469.35 377.506 1471.15 372.676L1534.92 374.523C1532.27 388.822 1526.45 401.275 1517.45 411.881C1508.55 422.392 1496.86 430.583 1482.37 436.455C1467.88 442.231 1451.12 445.119 1432.08 445.119Z" fill="#111111"/>
<path d="M1694.26 222.818V273.955H1556.62V222.818H1694.26ZM1585.46 170.545H1654.92V372.392C1654.92 376.653 1655.58 380.11 1656.91 382.761C1658.33 385.318 1660.36 387.165 1663.01 388.301C1665.67 389.343 1668.84 389.864 1672.53 389.864C1675.18 389.864 1677.98 389.627 1680.91 389.153C1683.94 388.585 1686.21 388.112 1687.73 387.733L1698.24 437.875C1694.93 438.822 1690.24 440.006 1684.18 441.426C1678.21 442.847 1671.06 443.746 1662.73 444.125C1646.44 444.883 1632.47 442.989 1620.83 438.443C1609.27 433.803 1600.42 426.606 1594.26 416.852C1588.2 407.098 1585.27 394.835 1585.46 380.062V170.545Z" fill="#111111"/>
<path d="M1803.85 316.568V441H1734.39V150.091H1801.58V262.875H1803.99C1808.92 249.428 1816.97 238.917 1828.14 231.341C1839.41 223.765 1853.19 219.977 1869.48 219.977C1884.82 219.977 1898.17 223.386 1909.53 230.205C1920.9 236.928 1929.7 246.445 1935.95 258.756C1942.3 271.066 1945.42 285.46 1945.33 301.938V441H1875.87V315.574C1875.96 303.453 1872.93 293.983 1866.78 287.165C1860.62 280.347 1851.96 276.938 1840.78 276.938C1833.49 276.938 1827.05 278.547 1821.47 281.767C1815.97 284.892 1811.66 289.39 1808.54 295.261C1805.51 301.133 1803.95 308.235 1803.85 316.568Z" fill="#111111"/>
<path d="M1997.35 441V222.818H2029.74V256.909H2032.58C2037.13 245.261 2044.47 236.218 2054.6 229.778C2064.73 223.244 2076.9 219.977 2091.1 219.977C2105.5 219.977 2117.48 223.244 2127.04 229.778C2136.7 236.218 2144.23 245.261 2149.63 256.909H2151.9C2157.49 245.64 2165.87 236.691 2177.04 230.062C2188.22 223.339 2201.61 219.977 2217.24 219.977C2236.75 219.977 2252.7 226.085 2265.11 238.301C2277.51 250.422 2283.72 269.314 2283.72 294.977V441H2250.19V294.977C2250.19 278.879 2245.79 267.373 2236.98 260.46C2228.18 253.547 2217.81 250.091 2205.88 250.091C2190.54 250.091 2178.65 254.731 2170.22 264.011C2161.8 273.197 2157.58 284.845 2157.58 298.955V441H2123.49V291.568C2123.49 279.163 2119.47 269.172 2111.42 261.597C2103.37 253.926 2093 250.091 2080.31 250.091C2071.6 250.091 2063.45 252.411 2055.88 257.051C2048.4 261.691 2042.33 268.131 2037.69 276.369C2033.15 284.513 2030.88 293.936 2030.88 304.636V441H1997.35Z" fill="#111111"/>
<path d="M2345.01 441V222.818H2378.53V441H2345.01ZM2362.06 186.455C2355.52 186.455 2349.89 184.229 2345.15 179.778C2340.51 175.328 2338.19 169.977 2338.19 163.727C2338.19 157.477 2340.51 152.127 2345.15 147.676C2349.89 143.225 2355.52 141 2362.06 141C2368.59 141 2374.18 143.225 2378.82 147.676C2383.55 152.127 2385.92 157.477 2385.92 163.727C2385.92 169.977 2383.55 175.328 2378.82 179.778C2374.18 184.229 2368.59 186.455 2362.06 186.455Z" fill="#111111"/>
<path d="M2473.45 309.75V441H2439.93V222.818H2472.32V256.909H2475.16C2480.27 245.83 2488.04 236.928 2498.45 230.205C2508.87 223.386 2522.32 219.977 2538.8 219.977C2553.57 219.977 2566.49 223.008 2577.57 229.068C2588.65 235.034 2597.27 244.125 2603.43 256.341C2609.58 268.462 2612.66 283.803 2612.66 302.364V441H2579.14V304.636C2579.14 287.496 2574.69 274.144 2565.78 264.58C2556.88 254.92 2544.67 250.091 2529.14 250.091C2518.44 250.091 2508.87 252.411 2500.44 257.051C2492.11 261.691 2485.53 268.462 2480.7 277.364C2475.87 286.265 2473.45 297.061 2473.45 309.75Z" fill="#111111"/>
<path d="M2756.3 445.545C2738.12 445.545 2722.07 440.953 2708.15 431.767C2694.23 422.487 2683.34 409.419 2675.48 392.562C2667.62 375.612 2663.69 355.583 2663.69 332.477C2663.69 309.561 2667.62 289.674 2675.48 272.818C2683.34 255.962 2694.28 242.941 2708.29 233.756C2722.31 224.57 2738.5 219.977 2756.87 219.977C2771.08 219.977 2782.3 222.345 2790.54 227.08C2798.87 231.72 2805.21 237.023 2809.57 242.989C2814.02 248.86 2817.48 253.689 2819.94 257.477H2822.78V150.091H2856.3V441H2823.92V407.477H2819.94C2817.48 411.455 2813.97 416.473 2809.43 422.534C2804.88 428.5 2798.4 433.85 2789.97 438.585C2781.54 443.225 2770.32 445.545 2756.3 445.545ZM2760.85 415.432C2774.29 415.432 2785.66 411.928 2794.94 404.92C2804.22 397.818 2811.27 388.017 2816.1 375.517C2820.93 362.922 2823.35 348.386 2823.35 331.909C2823.35 315.621 2820.98 301.369 2816.25 289.153C2811.51 276.843 2804.5 267.278 2795.22 260.46C2785.94 253.547 2774.48 250.091 2760.85 250.091C2746.64 250.091 2734.81 253.737 2725.34 261.028C2715.96 268.225 2708.91 278.027 2704.17 290.432C2699.53 302.742 2697.21 316.568 2697.21 331.909C2697.21 347.439 2699.58 361.549 2704.31 374.239C2709.14 386.833 2716.25 396.871 2725.62 404.352C2735.09 411.739 2746.83 415.432 2760.85 415.432Z" fill="#111111"/>
<path d="M3013.83 445.545C2992.81 445.545 2974.67 440.905 2959.43 431.625C2944.28 422.25 2932.58 409.182 2924.34 392.42C2916.2 375.564 2912.13 355.962 2912.13 333.614C2912.13 311.265 2916.2 291.568 2924.34 274.523C2932.58 257.383 2944.04 244.03 2958.72 234.466C2973.49 224.807 2990.72 219.977 3010.42 219.977C3021.79 219.977 3033.01 221.871 3044.09 225.659C3055.17 229.447 3065.25 235.602 3074.34 244.125C3083.43 252.553 3090.68 263.727 3096.08 277.648C3101.47 291.568 3104.17 308.708 3104.17 329.068V343.273H2935.99V314.295H3070.08C3070.08 301.985 3067.62 291 3062.69 281.341C3057.87 271.682 3050.95 264.059 3041.96 258.472C3033.05 252.884 3022.54 250.091 3010.42 250.091C2997.07 250.091 2985.52 253.405 2975.76 260.034C2966.1 266.568 2958.67 275.091 2953.46 285.602C2948.25 296.114 2945.65 307.383 2945.65 319.409V338.727C2945.65 355.205 2948.49 369.172 2954.17 380.631C2959.95 391.994 2967.95 400.659 2978.18 406.625C2988.4 412.496 3000.29 415.432 3013.83 415.432C3022.64 415.432 3030.59 414.201 3037.69 411.739C3044.89 409.182 3051.09 405.394 3056.3 400.375C3061.51 395.261 3065.54 388.917 3068.38 381.341L3100.76 390.432C3097.35 401.417 3091.62 411.076 3083.58 419.409C3075.53 427.648 3065.58 434.087 3053.75 438.727C3041.91 443.273 3028.6 445.545 3013.83 445.545Z" fill="#111111"/>
<path d="M3155.17 441V222.818H3187.55V255.773H3189.83C3193.8 244.977 3201 236.218 3211.42 229.494C3221.83 222.771 3233.58 219.409 3246.64 219.409C3249.11 219.409 3252.18 219.456 3255.88 219.551C3259.57 219.646 3262.36 219.788 3264.26 219.977V254.068C3263.12 253.784 3260.52 253.358 3256.44 252.79C3252.47 252.127 3248.25 251.795 3243.8 251.795C3233.2 251.795 3223.73 254.021 3215.39 258.472C3207.15 262.828 3200.62 268.888 3195.79 276.653C3191.06 284.324 3188.69 293.083 3188.69 302.932V441H3155.17Z" fill="#111111"/>
<path d="M961 625H928.682V520.273H962.432C972.591 520.273 981.284 522.369 988.511 526.562C995.739 530.722 1001.28 536.705 1005.13 544.511C1008.98 552.284 1010.91 561.591 1010.91 572.432C1010.91 583.341 1008.97 592.733 1005.08 600.608C1001.19 608.449 995.534 614.483 988.102 618.71C980.67 622.903 971.636 625 961 625ZM941.364 613.75H960.182C968.841 613.75 976.017 612.08 981.71 608.739C987.403 605.398 991.648 600.642 994.443 594.472C997.239 588.301 998.636 580.955 998.636 572.432C998.636 563.977 997.256 556.699 994.494 550.597C991.733 544.46 987.608 539.756 982.119 536.483C976.631 533.176 969.795 531.523 961.614 531.523H941.364V613.75Z" fill="#111111"/>
<path d="M1118.58 625V520.273H1181.79V531.523H1131.26V566.909H1178.51V578.159H1131.26V613.75H1182.6V625H1118.58Z" fill="#111111"/>
<path d="M1374.09 520.273V625H1361.82L1304.75 542.773H1303.73V625H1291.04V520.273H1303.32L1360.59 602.705H1361.61V520.273H1374.09Z" fill="#111111"/>
<path d="M1480.14 531.523V520.273H1558.68V531.523H1525.75V625H1513.07V531.523H1480.14Z" fill="#111111"/>
<path d="M1656.72 625H1643.42L1681.88 520.273H1694.97L1733.42 625H1720.13L1688.83 536.841H1688.01L1656.72 625ZM1661.63 584.091H1715.22V595.341H1661.63V584.091Z" fill="#111111"/>
<path d="M1836.13 625V520.273H1848.82V613.75H1897.5V625H1836.13Z" fill="#111111"/>
<path d="M2214.71 553H2202.03C2201.28 549.352 2199.96 546.148 2198.09 543.386C2196.25 540.625 2194 538.307 2191.34 536.432C2188.71 534.523 2185.8 533.091 2182.59 532.136C2179.39 531.182 2176.05 530.705 2172.57 530.705C2166.23 530.705 2160.49 532.307 2155.34 535.511C2150.22 538.716 2146.15 543.438 2143.12 549.676C2140.12 555.915 2138.62 563.568 2138.62 572.636C2138.62 581.705 2140.12 589.358 2143.12 595.597C2146.15 601.835 2150.22 606.557 2155.34 609.761C2160.49 612.966 2166.23 614.568 2172.57 614.568C2176.05 614.568 2179.39 614.091 2182.59 613.136C2185.8 612.182 2188.71 610.767 2191.34 608.892C2194 606.983 2196.25 604.648 2198.09 601.886C2199.96 599.091 2201.28 595.886 2202.03 592.273H2214.71C2213.75 597.625 2212.01 602.415 2209.49 606.642C2206.97 610.869 2203.83 614.466 2200.08 617.432C2196.33 620.364 2192.12 622.597 2187.45 624.131C2182.82 625.665 2177.86 626.432 2172.57 626.432C2163.64 626.432 2155.7 624.25 2148.74 619.886C2141.79 615.523 2136.32 609.318 2132.33 601.273C2128.34 593.227 2126.34 583.682 2126.34 572.636C2126.34 561.591 2128.34 552.045 2132.33 544C2136.32 535.955 2141.79 529.75 2148.74 525.386C2155.7 521.023 2163.64 518.841 2172.57 518.841C2177.86 518.841 2182.82 519.608 2187.45 521.142C2192.12 522.676 2196.33 524.926 2200.08 527.892C2203.83 530.824 2206.97 534.403 2209.49 538.631C2212.01 542.824 2213.75 547.614 2214.71 553Z" fill="#111111"/>
<path d="M2321.6 625V520.273H2334.28V613.75H2382.96V625H2321.6Z" fill="#111111"/>
<path d="M2501.68 520.273V625H2489V520.273H2501.68Z" fill="#111111"/>
<path d="M2696.56 520.273V625H2684.28L2627.21 542.773H2626.19V625H2613.51V520.273H2625.78L2683.06 602.705H2684.08V520.273H2696.56Z" fill="#111111"/>
<path d="M2821.01 520.273V625H2808.33V520.273H2821.01Z" fill="#111111"/>
<path d="M3017.11 553H3004.43C3003.68 549.352 3002.37 546.148 3000.49 543.386C2998.65 540.625 2996.4 538.307 2993.74 536.432C2991.12 534.523 2988.2 533.091 2985 532.136C2981.8 531.182 2978.45 530.705 2974.98 530.705C2968.64 530.705 2962.89 532.307 2957.74 535.511C2952.63 538.716 2948.56 543.438 2945.52 549.676C2942.52 555.915 2941.02 563.568 2941.02 572.636C2941.02 581.705 2942.52 589.358 2945.52 595.597C2948.56 601.835 2952.63 606.557 2957.74 609.761C2962.89 612.966 2968.64 614.568 2974.98 614.568C2978.45 614.568 2981.8 614.091 2985 613.136C2988.2 612.182 2991.12 610.767 2993.74 608.892C2996.4 606.983 2998.65 604.648 3000.49 601.886C3002.37 599.091 3003.68 595.886 3004.43 592.273H3017.11C3016.16 597.625 3014.42 602.415 3011.9 606.642C3009.38 610.869 3006.24 614.466 3002.49 617.432C2998.74 620.364 2994.53 622.597 2989.86 624.131C2985.22 625.665 2980.26 626.432 2974.98 626.432C2966.05 626.432 2958.1 624.25 2951.15 619.886C2944.19 615.523 2938.72 609.318 2934.73 601.273C2930.74 593.227 2928.75 583.682 2928.75 572.636C2928.75 561.591 2930.74 552.045 2934.73 544C2938.72 535.955 2944.19 529.75 2951.15 525.386C2958.1 521.023 2966.05 518.841 2974.98 518.841C2980.26 518.841 2985.22 519.608 2989.86 521.142C2994.53 522.676 2998.74 524.926 3002.49 527.892C3006.24 530.824 3009.38 534.403 3011.9 538.631C3014.42 542.824 3016.16 547.614 3017.11 553Z" fill="#111111"/>
<path d="M3181.28 546.455C3180.67 541.273 3178.18 537.25 3173.81 534.386C3169.45 531.523 3164.1 530.091 3157.76 530.091C3153.12 530.091 3149.06 530.841 3145.59 532.341C3142.14 533.841 3139.45 535.903 3137.51 538.528C3135.6 541.153 3134.64 544.136 3134.64 547.477C3134.64 550.273 3135.31 552.676 3136.64 554.688C3138 556.665 3139.74 558.318 3141.85 559.648C3143.97 560.943 3146.18 562.017 3148.5 562.869C3150.82 563.688 3152.95 564.352 3154.89 564.864L3165.53 567.727C3168.26 568.443 3171.29 569.432 3174.63 570.693C3178.01 571.955 3181.23 573.676 3184.3 575.858C3187.4 578.006 3189.96 580.767 3191.97 584.142C3193.98 587.517 3194.98 591.659 3194.98 596.568C3194.98 602.227 3193.5 607.341 3190.54 611.909C3187.6 616.477 3183.31 620.108 3177.65 622.801C3172.02 625.494 3165.19 626.841 3157.14 626.841C3149.64 626.841 3143.15 625.631 3137.66 623.21C3132.21 620.79 3127.91 617.415 3124.77 613.085C3121.67 608.756 3119.92 603.727 3119.51 598H3132.6C3132.94 601.955 3134.27 605.227 3136.59 607.818C3138.94 610.375 3141.9 612.284 3145.48 613.545C3149.1 614.773 3152.98 615.386 3157.14 615.386C3161.98 615.386 3166.33 614.602 3170.18 613.034C3174.04 611.432 3177.09 609.216 3179.34 606.386C3181.59 603.523 3182.71 600.182 3182.71 596.364C3182.71 592.886 3181.74 590.057 3179.8 587.875C3177.85 585.693 3175.3 583.92 3172.13 582.557C3168.96 581.193 3165.53 580 3161.85 578.977L3148.96 575.295C3140.78 572.943 3134.3 569.585 3129.53 565.222C3124.76 560.858 3122.37 555.148 3122.37 548.091C3122.37 542.227 3123.96 537.114 3127.13 532.75C3130.33 528.352 3134.63 524.943 3140.01 522.523C3145.43 520.068 3151.48 518.841 3158.17 518.841C3164.92 518.841 3170.92 520.051 3176.17 522.472C3181.42 524.858 3185.57 528.131 3188.64 532.29C3191.75 536.449 3193.38 541.17 3193.55 546.455H3181.28Z" fill="#111111"/>
</svg>
